<svg class="svg-icon" style="width: 1em; height: 1em;vertical-align: middle;fill: currentColor;overflow: hidden;" viewBox="0 0 1024 1024" version="1.1" xmlns="http://www.w3.org/2000/svg"><path d="M755.4 430.5c0 8.2-3 15.4-9 21.4-6 6-13.2 9-21.4 9H299c-8.2 0-15.4-3-21.4-9-6-6-9-13.1-9-21.4 0-8.2 3-15.4 9-21.4l213-213c6-6 13.1-9 21.4-9 8.2 0 15.4 3 21.4 9l213 213c6 6 9 13.1 9 21.4z m-9 161.1c6 6 9 13.2 9 21.4s-3 15.4-9 21.4l-213 213c-6 6-13.2 9-21.4 9s-15.4-3-21.4-9l-213-213c-6-6-9-13.1-9-21.4 0-8.2 3-15.4 9-21.4 6-6 13.1-9 21.4-9h426c8.3 0 15.4 3 21.4 9z"  /></svg>